# xmcd
#
# Track frame offsets:
#	150
#	13122
#	23582
#	29165
#	39142
#	51345
#	67510
#	78912
#	92082
#	100770
#	114062
#	128615
#	140315
#	149707
#	158700
#	167090
#	182360
#
# Disc length: 2601
#
# Revision: 2
# Processed by: cddbd v1.5.1PL0 Copyright (c) Steve Scherf et al.
# Submitted via: audiograbber 1.81.02
# Normalized: r1:DSETVAR1
#
DISCID=ca0a2711
DTITLE=Various Artist - Gospel Country CD1
DYEAR=1900
DGENRE=Gospel
TTITLE0=Nat Stucky - Loves me like a rock
TTITLE1=Wilma Burgess - What a time we'll have over there
TTITLE2=Narvel Felts - Rock of Ages
TTITLE3=Margo Smith - It is no secret
TTITLE4=Johnny Darrell - Angel Band
TTITLE5=Jim Ed Brown - Whsipering Hope
TTITLE6=Stu Phillips - We gotta love another
TTITLE7=Jan Howard - Where no one stands alone
TTITLE8=Warner Mack - Kneel at the cross
TTITLE9=Claude Grey - Family Bible
TTITLE10=Kenny Price - Peace in the valley
TTITLE11=Marlon Worth - Crying in the chapel
TTITLE12=Merle Kilgore - In the sweet bye bye
TTITLE13=Bob Galilon - High on Jesus
TTITLE14=Carl and Pearl Butler - Learning on the evrelasting arm
TTITLE15=Wanda Jackson - Jesus is the answer
TTITLE16=Billy Jo Spears - You've got the power
EXTD=
EXTT0=
EXTT1=
EXTT2=
EXTT3=
EXTT4=
EXTT5=
EXTT6=
EXTT7=
EXTT8=
EXTT9=
EXTT10=
EXTT11=
EXTT12=
EXTT13=
EXTT14=
EXTT15=
EXTT16=
PLAYORDER=
